<svg width="15" height="15" viewBox="0 0 15 15" fill="none" xmlns="http://www.w3.org/2000/svg">
<path fill-rule="evenodd" clip-rule="evenodd" d="M0.782495 2.9038C0.196709 2.31801 0.196709 1.36827 0.782495 0.782479C1.36828 0.196693 2.31803 0.196693 2.90382 0.782479L7.50002 5.37868L12.0962 0.782492C12.682 0.196706 13.6317 0.196706 14.2175 0.782492C14.8033 1.36828 14.8033 2.31803 14.2175 2.90381L9.62134 7.5L14.2175 12.0962C14.8033 12.682 14.8033 13.6317 14.2175 14.2175C13.6317 14.8033 12.682 14.8033 12.0962 14.2175L7.50002 9.62132L2.90382 14.2175C2.31803 14.8033 1.36828 14.8033 0.782495 14.2175C0.196708 13.6317 0.196709 12.682 0.782495 12.0962L5.3787 7.5L0.782495 2.9038Z" fill="#949494"/>
</svg>
