<svg width="115" height="21" viewBox="0 0 115 21" fill="none" xmlns="http://www.w3.org/2000/svg">
<path fill-rule="evenodd" clip-rule="evenodd" d="M11.1293 15.9282L4.86901 20.0714L6.87496 12.8373L0.99996 8.16373L8.49996 7.83601L11.1293 0.804352L13.7586 7.83601L21.2586 8.16373L15.3836 12.8373L17.3895 20.0714L11.1293 15.9282Z" fill="#F85036"/>
<path fill-rule="evenodd" clip-rule="evenodd" d="M34.3879 15.9282L28.1276 20.0714L30.1336 12.8373L24.2586 8.16373L31.7586 7.83601L34.3879 0.804352L37.0172 7.83601L44.5172 8.16373L38.6422 12.8373L40.6482 20.0714L34.3879 15.9282Z" fill="#F85036"/>
<path fill-rule="evenodd" clip-rule="evenodd" d="M57.6465 15.9282L51.3863 20.0714L53.3922 12.8373L47.5172 8.16373L55.0172 7.83601L57.6465 0.804352L60.2758 7.83601L67.7758 8.16373L61.9008 12.8373L63.9068 20.0714L57.6465 15.9282Z" fill="#F85036"/>
<path fill-rule="evenodd" clip-rule="evenodd" d="M80.9051 15.9282L74.6449 20.0714L76.6508 12.8373L70.7758 8.16373L78.2758 7.83601L80.9051 0.804352L83.5345 7.83601L91.0345 8.16373L85.1595 12.8373L87.1654 20.0714L80.9051 15.9282Z" fill="#F85036"/>
<path opacity="0.4" fill-rule="evenodd" clip-rule="evenodd" d="M103.905 15.9282L97.6449 20.0714L99.6508 12.8373L93.7758 8.16373L101.276 7.83601L103.905 0.804352L106.534 7.83601L114.034 8.16373L108.159 12.8373L110.165 20.0714L103.905 15.9282Z" fill="#F85036"/>
<path fill-rule="evenodd" clip-rule="evenodd" d="M104.164 15.9282L97.9035 20.0714L99.9095 12.8373L94.0345 8.16373L101.534 7.83601L104.164 0.804352V15.9282Z" fill="#F85036"/>
</svg>
